<?xml version="1.0" encoding="UTF-8" standalone="no"?>
<!-- Created with Inkscape (http://www.inkscape.org/) -->

<svg
   xmlns:dc="http://purl.org/dc/elements/1.1/"
   xmlns:cc="http://creativecommons.org/ns#"
   xmlns:rdf="http://www.w3.org/1999/02/22-rdf-syntax-ns#"
   xmlns:svg="http://www.w3.org/2000/svg"
   xmlns="http://www.w3.org/2000/svg"
   xmlns:sodipodi="http://sodipodi.sourceforge.net/DTD/sodipodi-0.dtd"
   xmlns:inkscape="http://www.inkscape.org/namespaces/inkscape"
   width="210mm"
   height="297mm"
   viewBox="0 0 210 297"
   version="1.1"
   id="svg8"
   inkscape:version="0.92.4 (5da689c313, 2019-01-14)"
   sodipodi:docname="buttons.svg">
  <defs
     id="defs2">
    <filter
       id="filter897"
       style="color-interpolation-filters:sRGB;"
       inkscape:menu-tooltip="Adds a small scale graininess"
       inkscape:menu="Image Effects"
       inkscape:label="Film Grain">
      <feTurbulence
         id="feTurbulence887"
         result="result0"
         seed="0"
         baseFrequency="0 0.40899999999999997"
         numOctaves="3"
         type="fractalNoise" />
      <feColorMatrix
         id="feColorMatrix889"
         type="saturate"
         values="0"
         result="result4" />
      <feComposite
         id="feComposite891"
         result="result2"
         k3="0.5"
         k2="0.5"
         k1="1.25"
         operator="arithmetic"
         in2="result4"
         in="SourceGraphic" />
      <feBlend
         id="feBlend893"
         in2="SourceGraphic"
         in="result2"
         mode="normal"
         result="result5" />
      <feComposite
         id="feComposite895"
         result="result3"
         operator="in"
         in2="SourceGraphic"
         in="result5" />
    </filter>
    <filter
       id="filter897-8"
       style="color-interpolation-filters:sRGB"
       inkscape:menu-tooltip="Adds a small scale graininess"
       inkscape:menu="Image Effects"
       inkscape:label="Film Grain">
      <feTurbulence
         id="feTurbulence887-7"
         result="result0"
         seed="0"
         baseFrequency="0 0.40899999999999997"
         numOctaves="3"
         type="fractalNoise" />
      <feColorMatrix
         id="feColorMatrix889-8"
         type="saturate"
         values="0"
         result="result4" />
      <feComposite
         k4="0"
         id="feComposite891-8"
         result="result2"
         k3="0.5"
         k2="0.5"
         k1="1.25"
         operator="arithmetic"
         in2="result4"
         in="SourceGraphic" />
      <feBlend
         id="feBlend893-0"
         in2="SourceGraphic"
         in="result2"
         mode="normal"
         result="result5" />
      <feComposite
         id="feComposite895-1"
         result="result3"
         operator="in"
         in2="SourceGraphic"
         in="result5" />
    </filter>
  </defs>
  <sodipodi:namedview
     id="base"
     pagecolor="#ffffff"
     bordercolor="#666666"
     borderopacity="1.0"
     inkscape:pageopacity="0.0"
     inkscape:pageshadow="2"
     inkscape:zoom="0.35"
     inkscape:cx="-776.97274"
     inkscape:cy="-104.0209"
     inkscape:document-units="mm"
     inkscape:current-layer="g71"
     showgrid="false"
     inkscape:window-width="1858"
     inkscape:window-height="1057"
     inkscape:window-x="1358"
     inkscape:window-y="-8"
     inkscape:window-maximized="1" />
  <metadata
     id="metadata5">
    <rdf:RDF>
      <cc:Work
         rdf:about="">
        <dc:format>image/svg+xml</dc:format>
        <dc:type
           rdf:resource="http://purl.org/dc/dcmitype/StillImage" />
        <dc:title />
      </cc:Work>
    </rdf:RDF>
  </metadata>
  <g
     inkscape:label="Layer 1"
     inkscape:groupmode="layer"
     id="layer1">
    <rect
       style="fill:#47525e;fill-opacity:1;stroke:none;stroke-width:0.2597467;stroke-opacity:1"
       id="rect10"
       width="171.97917"
       height="158.74998"
       x="18.097948"
       y="71.694725" />
    <g
       id="g1088"
       transform="translate(18.097951,-76.382638)">
      <rect
         y="211.83676"
         x="0.75595093"
         height="79.283287"
         width="171.22322"
         id="rect968"
         style="fill:#ffffff;fill-opacity:1;stroke:none;stroke-width:0.26829094;stroke-opacity:1" />
      <path
         style="fill:#47525e;fill-opacity:1;stroke-width:0.58283842"
         d="M 0.62325851,252.633 V 210.66864 H 39.382053 c 30.613674,0 38.760584,0.15283 38.767605,0.72853 0.0069,0.56242 0.117715,0.55691 0.487382,-0.0275 0.38481,-0.60716 8.973117,-0.73506 44.09631,-0.65741 41.49949,0.0916 43.67405,0.14869 44.77107,1.17089 0.63401,0.59064 1.40356,0.91927 1.70976,0.72997 0.32836,-0.20239 0.26365,-0.52525 -0.1542,-0.78346 -0.93078,-0.5755 0.43988,-1.08739 1.89796,-0.70905 1.4565,0.37793 1.26141,1.74948 -0.29119,2.04852 l -1.31132,0.25264 1.31132,0.0792 c 1.22754,0.0737 1.31146,0.34007 1.31146,4.15927 v 4.07982 h -2.03998 c -1.12194,0 -2.03991,0.24576 -2.03991,0.54658 0,0.30083 0.91797,0.3972 2.03991,0.21547 1.63279,-0.26503 2.03998,-0.14112 2.03998,0.61955 0,0.67256 -0.55278,0.96582 -1.89425,1.00306 l -1.89418,0.0482 1.89418,0.54728 c 2.44007,0.70477 2.54037,2.26205 0.14594,2.26205 -0.96175,0 -1.74852,0.22786 -1.74852,0.50666 0,0.27811 0.78677,0.4151 1.74852,0.30289 1.5877,-0.18449 1.74844,-0.0482 1.74844,1.48727 0,1.41602 -0.29325,1.75519 -1.80227,2.08665 -0.99122,0.21754 -2.93696,0.2258 -4.32386,0.0138 -2.06208,-0.30909 -2.4979,-0.21684 -2.39161,0.50803 0.20101,1.36894 0.54658,1.51467 3.7664,1.58723 2.70655,0.0619 3.0029,0.19757 3.0029,1.38064 0,1.35042 -2.02642,2.41391 -2.65664,1.3942 -0.17899,-0.2905 -0.58858,-0.528 -0.90923,-0.528 -0.32079,0 -0.39376,0.30702 -0.16177,0.6822 0.29669,0.48118 0.0915,0.54727 -0.69452,0.22441 -0.93339,-0.38274 -9.51316,-1.08256 -12.48096,-1.01792 -5.20107,0.11289 -6.99406,0.30564 -6.99406,0.75041 0,0.28982 0.85237,0.53075 1.89425,0.53557 1.04181,0.005 2.28766,0.28844 2.76851,0.63057 0.67806,0.48187 0.52868,0.54658 -0.66774,0.28637 -1.07417,-0.23336 -1.64588,-0.062 -1.88434,0.5576 -0.39238,1.0213 -0.004,1.1905 4.00919,1.75037 2.19508,0.30634 2.62656,0.51285 1.74852,0.83853 -1.2676,0.46948 -5.65934,-0.63332 -7.02111,-1.76338 -0.68151,-0.56517 -0.84721,-0.51836 -0.84721,0.24231 0,0.51974 -0.25401,0.94558 -0.56448,0.94558 -0.31046,0 -0.43575,-0.33525 -0.2788,-0.74512 0.22511,-0.5872 -0.67669,-0.65741 -4.24386,-0.33318 -2.49143,0.22648 -4.74199,0.43093 -5.00131,0.45365 -0.25952,0.0206 -0.34763,0.24094 -0.19688,0.48531 0.45572,0.7372 -1.36081,2.84251 -1.83119,2.12232 -0.6223,-0.9526 -4.00795,-1.44542 -5.64763,-0.82194 -0.79448,0.3022 -2.3976,0.61335 -3.5625,0.69197 -1.16483,0.0778 -2.24691,0.47912 -2.40462,0.89002 -0.15833,0.41097 -0.5218,0.60234 -0.80858,0.42474 -0.28706,-0.17761 -0.52181,0.0867 -0.52181,0.58582 0,0.51973 0.4984,0.90868 1.16566,0.90868 0.64089,0 1.16572,0.29394 1.16572,0.65466 0,0.46879 0.23337,0.46053 0.82525,-0.0275 0.65879,-0.54727 0.90165,-0.44401 1.20496,0.51148 0.24575,0.77457 0.87942,1.19635 1.79752,1.19635 0.77975,0 1.41782,0.29257 1.41782,0.65053 0,0.36347 0.51354,0.5163 1.1651,0.34626 0.6402,-0.16728 1.312,-0.0619 1.49147,0.22373 0.17898,0.2905 -0.26641,0.528 -0.99025,0.528 -0.93394,0 -1.13564,0.18104 -0.69383,0.6223 0.80486,0.80487 4.72223,-0.76177 5.23301,-2.09285 0.45365,-1.18217 -0.824,-3.64097 -2.06414,-3.97277 -0.84762,-0.22648 -0.84631,-0.25677 0.0138,-0.31735 0.5218,-0.0344 1.26216,0.31046 1.64532,0.77203 0.38344,0.46191 1.02282,0.71448 1.42112,0.56173 0.39858,-0.15283 1.49388,0.12391 2.43443,0.61404 1.54874,0.80762 1.5864,0.89216 0.39858,0.89539 -0.72123,0.002 -1.31132,0.26572 -1.31132,0.58583 0,0.58995 0.85147,0.7564 3.49703,0.68357 3.22642,-0.0888 4.58496,0.50872 4.83182,2.12341 l 0.23887,1.56416 0.0874,-1.60278 c 0.095,-1.73096 1.58922,-2.19913 2.88498,-0.90337 0.54383,0.54451 0.69954,0.54038 0.69954,-0.0138 0,-0.39307 -0.7869,-0.87144 -1.74851,-1.0637 -1.01703,-0.20308 -1.74859,-0.7182 -1.74859,-1.23037 0,-0.87446 1.71093,-0.83805 6.41127,0.13699 0.80136,0.16591 2.3163,0.46467 3.36651,0.66361 1.31042,0.24782 1.7468,0.56861 1.39097,1.0222 -0.285,0.36278 -0.46742,1.24722 -0.40478,1.96405 0.0764,0.87356 -0.28637,1.424 -1.0995,1.66976 -0.66774,0.2017 -1.73798,0.84059 -2.37908,1.41994 -1.04264,0.94221 -4.46546,2.05595 -12.531,4.07762 -1.44252,0.36141 -3.36562,0.8839 -4.27333,1.1607 -0.94103,0.28706 -2.23713,0.28018 -3.01481,-0.0138 -1.36487,-0.51836 -2.54657,0.16866 -2.5001,1.45368 0.0413,1.1271 -5.45303,3.32266 -8.77679,3.50777 -4.09696,0.22786 -4.97356,0.42818 -6.15078,1.40528 -0.77038,0.63952 -1.40749,0.64571 -3.58218,0.0344 -2.50031,-0.69982 -2.81952,-0.64915 -5.82442,0.92272 -1.74858,0.91474 -3.21203,1.87016 -3.25217,2.12307 -0.0413,0.25264 -0.10532,0.78759 -0.14593,1.1883 -0.0413,0.41579 -1.32364,0.89794 -2.98707,1.12311 -1.602787,0.21753 -3.747609,0.6526 -4.766291,0.96726 -1.447825,0.44746 -1.920888,0.39307 -2.167332,-0.24851 -0.399268,-1.03995 -3.78939,-1.05096 -5.151236,-0.0138 -0.555532,0.42198 -0.835501,0.94302 -0.620929,1.15732 0.21409,0.21478 -0.445389,0.70477 -1.466137,1.09014 -1.020678,0.38481 -1.855766,0.92285 -1.855766,1.19477 0,0.27191 -0.501837,0.33525 -1.1143,0.14043 -0.881279,-0.28017 -1.192914,0.004 -1.490161,1.35744 -0.575496,2.62057 -1.864234,3.33891 -8.118341,4.52569 -5.063328,0.96086 -5.526616,1.14432 -3.788495,1.50084 1.270495,0.2609 0.572742,0.33662 -1.946428,0.2134 -2.200995,-0.10808 -3.785672,0.0344 -3.605796,0.32698 0.560351,0.90648 -1.475154,1.2577 -2.495007,0.43025 -0.538322,-0.43644 -0.805969,-0.50528 -0.59477,-0.15214 0.543141,0.90689 -3.73425,2.21848 -5.468102,1.67693 -0.767144,-0.23956 -1.571461,-0.71139 -1.787478,-1.04829 -0.267784,-0.41716 -0.669805,-0.38274 -1.259481,0.1067 -0.587199,0.48739 -0.9886,0.52249 -1.244475,0.10808 -0.207894,-0.33593 -0.868062,-0.61129 -1.467376,-0.61129 -0.5989,0 -1.436191,-0.32836 -1.859828,-0.72859 -0.981715,-0.92864 -4.558667,-1.30086 -4.558667,-0.47499 0,0.34075 -0.408905,0.62024 -0.908608,0.62024 -0.499773,0 -0.746561,-0.26228 -0.548649,-0.58238 0.197569,-0.32011 0.08261,-0.58238 -0.25677,-0.58238 -0.339377,0 -0.616799,0.27742 -0.616799,0.61748 0,0.33938 -0.318037,0.42061 -0.707391,0.18036 -1.185824,-0.73286 -5.704014,-1.24186 -5.704014,-0.64227 0,0.30427 -0.39376,0.40202 -0.874257,0.21754 -0.481186,-0.18449 -0.877218,-0.14732 -0.880935,0.0833 -0.0067,0.42405 -2.487641,1.66322 -6.640364,3.31695 -2.067585,0.82331 -2.405585,0.82125 -3.69336,-0.0207 -0.779603,-0.51079 -1.591355,-0.74078 -1.803999,-0.51079 -0.212713,0.22992 -0.05507,0.53557 0.345573,0.67944 0.402709,0.14319 0.576872,0.51285 0.386876,0.82001 -0.70808,1.14528 1.043189,2.32174 2.861231,1.92248 0.965057,-0.21203 4.39841,-0.37518 7.629721,-0.3621 3.231242,0.0138 6.732746,-0.27329 7.781029,-0.63607 1.545095,-0.53419 2.412469,-0.47086 4.580077,0.3318 1.47068,0.54521 2.856894,0.87798 3.080415,0.73982 0.567235,-0.35039 4.894052,-0.90882 9.288882,-1.19891 2.035919,-0.13423 4.055936,-0.53832 4.489072,-0.89773 0.433686,-0.35934 1.34794,-0.47568 2.032889,-0.25883 0.899109,0.28568 1.48376,0.0551 2.102349,-0.82814 0.715996,-1.02219 1.059434,-1.11505 2.087685,-0.56517 0.957622,0.51217 1.37045,0.4805 1.859759,-0.14318 0.345573,-0.44126 1.661571,-0.89402 2.923669,-1.00609 1.262097,-0.11221 2.83576,-0.54865 3.49703,-0.97022 1.828161,-1.16538 6.146098,-1.19924 8.669123,-0.0709 3.046753,1.36604 10.309767,1.74308 10.309767,0.53488 0,-0.51767 0.338689,-0.74505 0.830751,-0.55622 1.055649,0.40477 4.723404,-0.59202 5.706564,-1.55074 0.48944,-0.47775 3.0305,-0.78139 7.34631,-0.87853 6.67898,-0.15075 9.11974,0.15696 8.55161,1.07623 -0.47499,0.76784 2.03516,0.53144 4.81255,-0.45227 1.36233,-0.48325 2.47697,-1.23587 2.47697,-1.6732 0,-0.43713 0.52455,-0.7951 1.16572,-0.7951 1.44982,0 3.36837,-1.84289 3.01681,-2.89778 -0.17554,-0.528 0.0482,-0.66499 0.69245,-0.41923 0.52456,0.20101 0.95384,0.12391 0.95384,-0.1721 0,-0.29601 0.92086,-0.7109 2.04638,-0.9221 1.12545,-0.21065 2.19005,-0.6168 2.36573,-0.90062 0.17554,-0.28431 0.95955,-0.5163 1.74204,-0.5163 1.55893,0 1.80352,-0.55209 0.72336,-1.63197 -1.41519,-1.41512 1.9529,-0.72907 3.71987,0.75765 1.65881,1.39585 3.81582,2.03364 3.13121,0.92595 -0.5039,-0.81574 4.0746,-1.38477 7.59923,-0.94433 2.09822,0.26227 3.15132,0.18449 3.15132,-0.23061 0,-0.3442 0.42543,-0.62438 0.94564,-0.62438 0.78078,0 0.81726,-0.15488 0.20927,-0.88761 -0.61542,-0.74215 -0.57962,-0.82744 0.2196,-0.52042 0.52593,0.2017 0.95673,0.60096 0.95673,0.88761 0,0.28637 0.63401,0.52042 1.40845,0.52042 0.77471,0 1.49766,0.2671 1.60663,0.59409 0.10877,0.32767 1.89604,0.57756 3.98276,0.55759 5.71827,-0.0551 6.46614,-0.0206 7.04232,0.33663 0.29188,0.18036 0.53075,5.42693 0.53075,11.65894 v 11.331 H 86.301937 0.62470414 Z M 111.51724,282.79489 c 0.17141,-0.44746 -0.26503,-0.76164 -1.13288,-0.81437 -1.31373,-0.0805 -1.33906,-0.0275 -0.36278,0.70973 1.29369,0.98103 1.16303,0.97194 1.49573,0.10464 z m -51.01946,-0.20652 c -0.193438,-0.19413 -0.696721,-0.21478 -1.117122,-0.0413 -0.464664,0.18586 -0.326298,0.32423 0.352457,0.35245 0.614045,0.0275 0.958654,-0.11221 0.765009,-0.30633 z m 55.72854,-0.0854 c 0.1487,-0.24025 -0.35865,-0.4743 -1.12737,-0.52043 -0.76859,-0.0413 -1.25246,0.15076 -1.07534,0.43713 0.39169,0.63263 1.82981,0.68771 2.20271,0.084 z M 14.611378,280.93458 c 0,-0.46191 -0.262965,-1.00189 -0.583068,-1.20001 -0.320102,-0.19825 -0.583067,0.17967 -0.583067,0.83984 0,0.66017 0.262965,1.20014 0.583067,1.20014 0.320791,0 0.583068,-0.37792 0.583068,-0.83997 z m 11.073882,-3.50344 c 0,-0.42749 -0.352456,-0.91273 -0.783183,-1.07809 -0.560351,-0.21546 -0.707391,0.0971 -0.516294,1.09654 0.271227,1.41899 1.29934,1.40432 1.29934,-0.0207 z m 117.34394,0.26022 c 1.14115,-0.003 1.10852,-0.0847 -0.33662,-0.83819 -0.88004,-0.45916 -2.106,-0.79654 -2.72438,-0.74993 -0.91136,0.0709 -1.01387,0.29119 -0.54108,1.17481 0.34213,0.6402 0.94565,0.95115 1.46063,0.75358 0.48256,-0.18518 1.4459,-0.338 2.1409,-0.34007 z m -5.70642,-1.12332 c -0.21134,-0.34144 -0.82759,-0.61336 -1.3697,-0.60303 -0.8653,0.0138 -0.84851,0.12253 0.13768,0.8682 1.1978,0.9062 1.86706,0.76218 1.23216,-0.26503 z M 18.395743,275.95331 c 0.204452,-0.33043 -0.02754,-0.42818 -0.548648,-0.22855 -1.009733,0.38756 -1.194498,0.80514 -0.355899,0.80514 0.301516,0 0.708768,-0.25952 0.904547,-0.57618 z m 8.909372,-1.07754 c 0.324232,-0.97435 -1.433163,-0.83908 -1.808474,0.13905 -0.198945,0.51974 0.03442,0.76611 0.634697,0.67807 0.521801,-0.0764 1.04966,-0.44402 1.173915,-0.81671 z m 9.454165,-0.61543 c 0,-0.60647 -0.406839,-1.25955 -0.904547,-1.45044 -0.497707,-0.19137 -0.800186,-0.15351 -0.672558,0.0833 0.127352,0.2368 0.395137,0.8894 0.59477,1.45037 0.477744,1.34271 0.982404,1.29996 0.982404,-0.0833 z m 10.748204,0.24782 c -0.622306,-0.47086 -1.468477,-0.86406 -1.880479,-0.87432 -0.412347,-0.007 -1.4037,-0.44746 -2.203886,-0.97167 -0.800049,-0.52455 -1.577657,-0.83027 -1.728001,-0.68013 -0.292567,0.29257 5.476775,3.32356 6.395159,3.3599 0.301515,0.0138 0.0413,-0.36347 -0.583068,-0.83398 z m 102.963986,-0.8282 c -1.02019,-0.78428 -1.1799,-1.14796 -0.59064,-1.34443 0.44401,-0.148 -0.43506,-0.31597 -1.95297,-0.3738 -1.57779,-0.0551 -2.76079,0.15352 -2.76079,0.49702 0,0.73775 2.85696,1.88551 3.79614,1.52507 0.37448,-0.14319 1.05055,-0.0275 1.50234,0.25883 1.44748,0.91639 1.45127,0.54865 0.006,-0.5631 z M 50.00669,273.2628 c -0.193438,-0.19413 -0.696721,-0.21478 -1.117122,-0.0413 -0.464664,0.18587 -0.326297,0.32423 0.352457,0.35246 0.614045,0.0275 0.958654,-0.11221 0.76501,-0.30634 z m 1.323502,-0.81355 c -0.481186,-0.31046 -1.136534,-0.56517 -1.45705,-0.56517 -0.32079,0 -0.189307,0.25402 0.291878,0.56517 0.481186,0.31047 1.136535,0.56449 1.45705,0.56449 0.320791,0 0.189308,-0.25402 -0.291189,-0.56449 z m -17.776546,-0.58238 c 0.197569,-0.3201 0.08261,-0.58237 -0.25677,-0.58237 -0.339377,0 -0.616799,0.26227 -0.616799,0.58237 0,0.32011 0.11565,0.58238 0.256771,0.58238 0.141808,0 0.41923,-0.26227 0.616798,-0.58238 z m 6.754844,-0.81133 c -0.620929,-0.74856 -2.966417,-1.69145 -2.966417,-1.19271 0,0.20996 2.977294,1.93273 3.422683,1.98064 0.11978,0.0138 -0.08605,-0.34144 -0.456403,-0.78793 z m 6.684766,-0.6643 c -0.622306,-0.47086 -1.409138,-0.84652 -1.748515,-0.83509 -0.339377,0.0138 0.03442,0.39583 0.839975,0.85361 1.887915,1.07926 2.347554,1.06989 0.90854,-0.0207 z m 12.496719,0.30977 c 0,-0.3201 -0.11565,-0.58238 -0.25677,-0.58238 -0.141809,0 -0.419231,0.26228 -0.616799,0.58238 -0.197569,0.32011 -0.08261,0.58238 0.25677,0.58238 0.339377,0 0.616799,-0.26227 0.616799,-0.58238 z m -6.411268,-2.65622 c 0,-1.2409 0.370355,-2.16438 1.01999,-2.54265 0.936488,-0.54589 0.924648,-0.59408 -0.145939,-0.59339 -1.513773,10e-4 -3.084408,1.21928 -2.771052,2.14936 0.134925,0.40065 -0.03442,0.7286 -0.385499,0.7286 -0.879627,0 -0.794611,2.17724 0.09775,2.48833 1.408932,0.49151 2.185644,-0.30152 2.185644,-2.23039 z m 12.418724,0.87811 c 0.899935,-0.26985 1.949044,-0.41717 2.331308,-0.3263 0.382057,0.0909 0.497019,0.0551 0.254705,-0.0812 -0.242314,-0.13492 -0.305646,-0.46398 -0.141121,-0.73073 0.401333,-0.64915 -3.08427,-0.29945 -5.135952,0.51492 -0.919967,0.36485 -1.46896,0.92368 -1.25246,1.27394 0.212024,0.34282 0.817878,0.44745 1.346425,0.2313 0.528685,-0.21547 1.697368,-0.61336 2.597233,-0.88287 z m 19.44865,-1.33624 -0.685638,-2.22922 -4.079823,0.13011 c -5.989971,0.19068 -6.119871,0.15902 -6.119871,-1.48101 0,-1.11471 -0.487381,-1.65296 -2.111091,-2.33137 -2.760932,-1.15354 -3.084132,-1.11954 -3.640009,0.38274 -0.28224,0.7646 -0.623683,1.01387 -0.860902,0.62919 -0.618176,-1.00064 1.367765,-2.6068 2.76169,-2.23328 0.675312,0.18105 1.775293,0.48188 2.444754,0.66843 1.00636,0.28086 1.191468,0.10464 1.068521,-1.01538 -0.08192,-0.74511 -0.20101,-1.35475 -0.264342,-1.35475 -0.06196,0 -0.196192,-0.66705 -0.296008,-1.48218 -0.154889,-1.27118 0.06195,-1.5009 1.541997,-1.61345 2.564948,-0.1955 4.017316,0.81196 4.017316,2.78681 0,0.92947 0.258836,2.37213 0.576184,3.20591 0.450208,1.18473 0.386188,1.58854 -0.291878,1.84875 -1.706592,0.65535 -0.814298,1.08284 2.294547,1.10039 1.852738,0.007 3.018047,-0.21133 2.817312,-0.53625 -0.189307,-0.30703 0.06196,-0.39789 0.569989,-0.20377 0.59477,0.22786 1.014896,-0.0413 1.206682,-0.7752 0.161772,-0.61886 0.63332,-1.12531 1.048283,-1.12531 0.586509,0 0.598212,0.15558 0.05507,0.69913 -0.843555,0.84356 -0.939861,2.43216 -0.116338,1.92337 0.32079,-0.19826 0.583067,-0.13837 0.583067,0.13217 0,0.27054 0.47086,0.4922 1.046494,0.4922 0.832334,0 0.994657,-0.36141 0.793646,-1.76931 -0.139055,-0.97311 -0.53075,-1.94808 -0.870402,-2.1665 -0.339377,-0.21822 0.483251,-0.2492 1.829057,-0.0709 1.625774,0.21822 2.44675,0.1067 2.44675,-0.33111 0,-0.36279 -0.870884,-0.65948 -1.935344,-0.65948 -1.837455,0 -1.933693,-0.10533 -1.900099,-2.08246 0.02754,-1.79546 0.25677,-2.12685 1.643948,-2.4042 1.222377,-0.24438 1.608703,-0.65948 1.608703,-1.72656 0,-1.26705 -0.125976,-1.33741 -1.283506,-0.71779 -0.905855,0.48463 -1.345737,0.50047 -1.494774,0.0482 -0.116338,-0.34901 -0.52249,-0.53901 -0.902138,-0.42336 -0.379992,0.11565 -1.8093,0.36691 -3.176101,0.55829 l -2.485301,0.34832 0.374485,-2.3395 c 0.301516,-1.88798 0.198945,-2.33956 -0.531438,-2.33956 -0.498396,0 -1.032381,-0.45916 -1.186788,-1.01999 -0.154199,-0.56104 -0.132859,0.13836 0.04819,1.55397 0.289813,2.27341 0.209959,2.5286 -0.683573,2.18571 -0.556221,-0.21409 -1.234493,-0.38894 -1.506408,-0.38894 -0.271914,0 -0.250574,-0.85064 0.04819,-1.89032 0.66774,-2.3267 0.66774,-2.33565 -0.0047,-1.92027 -0.300828,0.18587 -0.801357,-0.11634 -1.112372,-0.67187 -0.490824,-0.87804 -0.734927,-0.72274 -1.861205,1.18624 -0.774372,1.31235 -1.609391,2.07612 -2.074675,1.89769 -0.42818,-0.16384 -0.926094,-0.0551 -1.106314,0.2313 -0.180359,0.29118 0.794954,0.81891 2.166988,1.17164 3.308961,0.85085 3.831863,1.06047 2.782273,1.11554 -0.483251,0.0275 -1.756156,-0.20583 -2.829221,-0.51354 -1.705078,-0.48876 -1.988695,-0.41579 -2.249733,0.58238 -0.164526,0.62781 -0.564482,1.14231 -0.888301,1.14231 -0.360717,0 -0.444701,0.90276 -0.216155,2.33145 0.301515,1.88867 0.198945,2.33131 -0.543141,2.33131 -0.54383,0 -0.746561,0.27329 -0.499773,0.67255 0.257459,0.41717 0.160396,0.51492 -0.25677,0.25746 -0.370354,-0.22854 -0.672558,-0.79378 -0.672558,-1.25576 0,-0.46191 -0.262966,-0.83984 -0.583068,-0.83984 -0.320791,0 -0.583068,0.35796 -0.583068,0.79564 0,0.43782 -0.524554,1.46249 -1.165654,2.27755 -0.640892,0.81512 -1.165722,1.97823 -1.165722,2.58484 0,0.60647 -0.310465,1.41327 -0.689562,1.79257 -0.379304,0.37931 -0.495642,0.88321 -0.259524,1.11967 0.236119,0.23681 0.673936,0.0413 0.972216,-0.42749 0.47499,-0.75035 0.544518,-0.74828 0.560351,0.0138 0.01377,0.77712 0.08054,0.77712 0.583067,0 0.489447,-0.75778 0.566547,-0.74601 0.573431,0.0888 0.0052,0.54383 0.832334,1.27876 1.903127,1.68945 2.611001,1.0014 3.001595,0.99948 3.456071,-0.0138 0.289813,-0.64777 0.40684,-0.5335 0.437129,0.42474 0.0413,1.40205 0.948053,1.79106 1.354686,0.58238 0.191373,-0.56861 0.45778,-0.55347 1.211156,0.0709 0.532815,0.43989 1.541378,0.6464 2.250077,0.46192 0.706635,-0.18449 1.623228,-0.0551 2.037709,0.28981 0.414412,0.34351 1.542754,0.50941 2.507398,0.36829 0.964643,-0.14112 1.753815,0.003 1.753815,0.32217 0,0.31803 0.11152,0.46741 0.24851,0.33111 0.13699,-0.1363 -0.05507,-1.25149 -0.437129,-2.47745 z m -3.308273,0.20032 c 0,-1.38965 0.895047,-1.54606 1.39475,-0.24369 0.499773,1.30265 0.460534,1.40942 -0.520424,1.40942 -0.486004,0 -0.874257,-0.51767 -0.874257,-1.16566 z m -2.622773,-1.16572 c 0.197569,-0.3201 0.476367,-0.58238 0.616799,-0.58238 0.141809,0 0.25677,0.26228 0.25677,0.58238 0,0.3201 -0.277421,0.58238 -0.616798,0.58238 -0.339378,0 -0.455716,-0.26228 -0.256771,-0.58238 z m 1.457119,-13.40526 -1.457119,-0.46673 1.602783,-0.0551 c 0.881554,-0.0344 1.602782,0.20377 1.602782,0.52524 0,0.32011 -0.06195,0.55691 -0.145939,0.52525 -0.08054,-0.0344 -0.801425,-0.26779 -1.602782,-0.52525 z m -18.508926,14.26912 c 1.198559,-0.2251 2.028278,-0.65328 1.843789,-0.95149 -0.184489,-0.29808 -0.772238,-0.41648 -1.306224,-0.26228 -0.533503,0.1542 -2.151155,0.5989 -3.59368,0.98874 -2.37144,0.6402 -2.483166,0.74539 -1.165653,1.09537 0.801356,0.2134 1.588808,0.19619 1.749823,-0.0344 0.161083,-0.23337 1.273387,-0.60785 2.471945,-0.83316 z m 28.884573,0.0275 c 0.170032,-0.17072 -0.38963,-0.30978 -1.244544,-0.30978 -0.854845,0 -1.554182,0.24714 -1.554182,0.54934 0,0.54383 2.203198,0.3559 2.798726,-0.23956 z m 3.029612,-0.89257 c 0.481185,-0.31046 0.743118,-0.58926 0.583067,-0.61886 -0.160395,-0.0275 -0.732311,-0.13837 -1.271115,-0.24301 -0.539011,-0.10463 -1.120702,0.1783 -1.293075,0.62713 -0.360029,0.93828 0.698098,1.06322 1.981329,0.23405 z m 2.622772,-1.16565 c 0.197568,-0.32011 -0.04819,-0.58238 -0.548648,-0.58238 -0.499773,0 -0.908677,0.26227 -0.908677,0.58238 0,0.3201 0.247132,0.58238 0.548648,0.58238 0.301515,0 0.710902,-0.26228 0.908677,-0.58238 z m -34.678903,-1.74859 c 0,-0.3201 -0.116338,-0.58238 -0.25677,-0.58238 -0.141809,0 -0.419231,0.26228 -0.616799,0.58238 -0.197568,0.32011 -0.08261,0.58238 0.25677,0.58238 0.339377,0 0.616799,-0.26227 0.616799,-0.58238 z m 32.630043,-5.62801 c 0.0052,-0.38826 -0.485316,-0.54521 -1.156774,-0.36967 -1.337132,0.3497 -1.457325,0.80983 -0.469483,1.7976 0.740228,0.7403 1.607601,-0.0206 1.626257,-1.42841 z m 24.296715,-0.32079 c 0.67463,0.86654 0.74828,0.6941 0.56999,-1.33645 -0.18793,-2.13594 -0.35865,-2.34672 -2.04012,-2.514 -1.61476,-0.1604 -1.83553,-0.007 -1.83553,1.26368 0,0.7955 0.16728,1.88158 0.37174,2.4135 0.33387,0.8693 0.46191,0.8766 1.26547,0.0723 0.80397,-0.80383 0.97269,-0.79372 1.669,0.10051 z m 16.51087,-0.87839 c 0,-0.1604 -0.39376,-0.14043 -0.87426,0.0413 -0.48118,0.18449 -0.87425,0.062 -0.87425,-0.26365 0,-0.32974 -0.29051,-0.41923 -0.64503,-0.20032 -0.4564,0.28224 -0.42887,0.53212 0.0922,0.8547 0.71992,0.44471 2.30067,0.14663 2.30067,-0.43506 z m -12.84153,-1.81804 c -0.85643,-0.29463 -0.67325,-1.26286 0.23887,-1.26286 0.44195,0 1.1629,-0.45916 1.60285,-1.01999 0.70594,-0.90035 0.69245,-0.93587 -0.12047,-0.30358 -0.50597,0.39445 -1.53325,0.81051 -2.28264,0.92486 -0.98061,0.15007 -1.38029,0.6106 -1.42552,1.64326 -0.0551,1.28591 0.0737,1.37155 1.24358,0.82352 0.71854,-0.33594 1.05283,-0.69906 0.74271,-0.80583 z m -16.88322,-0.0971 c 0,-0.69197 -1.01256,-0.69197 -2.62278,0 -0.97689,0.41992 -0.85883,0.50735 0.7286,0.54246 1.04174,0.0206 1.89418,-0.22098 1.89418,-0.54246 z m 8.74257,-0.35383 c 0,-0.12598 -0.39376,-0.22855 -0.87426,-0.22855 -0.48118,0 -0.87425,0.25402 -0.87425,0.56449 0,0.31046 0.39376,0.41372 0.87425,0.22854 0.48119,-0.18449 0.87426,-0.4385 0.87426,-0.56517 z m -1.8051,-5.50741 c 0.0909,-3.11635 -0.062,-4.07707 -0.6402,-3.96562 -0.41855,0.0812 -1.3697,-0.0551 -2.11447,-0.31115 -0.94819,-0.32079 -1.55983,-0.19344 -2.03991,0.4268 -0.37724,0.48738 -1.34147,0.96995 -2.14289,1.07279 -1.48356,0.19069 -1.56258,0.54039 -0.85588,3.79332 0.29876,1.37726 2.35953,1.66095 2.84643,0.39238 0.46329,-1.20758 3.51775,-0.0344 3.73267,1.43227 0.39789,2.71715 1.09991,1.07471 1.21425,-2.84058 z m 18.27026,3.72668 c -0.40064,-0.16177 -0.72852,-0.66568 -0.72852,-1.11967 0,-0.45434 -0.26297,-0.82566 -0.58307,-0.82566 -0.32079,0 -0.58307,0.37173 -0.58307,0.82566 0,0.80735 0.87495,1.41368 2.03991,1.41368 0.3201,0 0.25471,-0.13217 -0.14594,-0.29394 z m -40.883584,-2.47828 c -0.447454,-0.28362 -0.652595,-0.93497 -0.455715,-1.44817 0.207894,-0.54039 0.05507,-0.93305 -0.352457,-0.93305 -0.390318,0 -0.710213,0.65604 -0.710213,1.45712 0,1.07142 0.308399,1.45464 1.165653,1.4481 0.901174,-0.007 0.981096,-0.12597 0.352457,-0.52455 z M 137.07544,249.908 c 1.9286,-0.3855 2.27238,-1.35606 0.4805,-1.35606 -0.65948,0 -1.03989,-0.25952 -0.84397,-0.57618 0.20445,-0.32974 -0.0275,-0.42818 -0.54521,-0.22993 -0.49564,0.19069 -0.7752,0.55003 -0.62093,0.79875 0.15351,0.24919 -0.56861,0.89532 -1.60615,1.43591 -1.87739,0.97841 -1.87835,0.98137 -0.21547,0.62368 0.91893,-0.19756 2.42706,-0.51078 3.35137,-0.69555 z m 7.8003,-0.19068 c 0.19757,-0.3201 -0.0482,-0.58238 -0.54865,-0.58238 -0.49977,0 -0.90867,0.26228 -0.90867,0.58238 0,0.3201 0.24713,0.58238 0.54865,0.58238 0.30151,0 0.71021,-0.26228 0.9086,-0.58238 z m 9.61683,-0.74945 c 0.48119,-0.1783 0.062,-0.34489 -0.92278,-0.37036 -1.20028,-0.0275 -1.79712,0.23406 -1.79712,0.79668 0,0.57894 0.28844,0.69486 0.92286,0.37035 0.50734,-0.26021 1.3162,-0.61886 1.79704,-0.79674 z m -60.724199,-0.56173 c -0.100505,-0.72123 -0.444701,-1.50407 -0.765216,-1.73957 -0.32079,-0.23611 -0.05507,-0.44057 0.583068,-0.45571 1.035134,-0.0206 1.062051,-0.10739 0.240249,-0.73754 -0.508722,-0.39101 -0.814987,-1.03782 -0.680131,-1.43854 0.134924,-0.40064 -0.150758,-0.72852 -0.634698,-0.72852 -0.483939,0 -1.011591,-0.45916 -1.1724,-1.01992 -0.161083,-0.56104 -0.143873,0.002 0.03442,1.24991 0.183112,1.25921 0.09982,2.13512 -0.187931,1.96715 -0.284306,-0.1659 -1.042294,-0.0916 -1.683462,0.16659 -0.989701,0.39789 -1.011729,0.47568 -0.145939,0.5101 0.561039,0.0207 1.01999,0.45915 1.01999,0.9698 0,0.51079 0.524555,1.06598 1.165723,1.23367 0.640892,0.16797 1.165653,0.53626 1.165653,0.81974 0,0.28361 0.278799,0.51491 0.619553,0.51491 0.340754,0 0.536945,-0.59064 0.437129,-1.31138 z m 3.40926,-0.58238 c -0.161772,-0.40064 -0.293943,-0.073 -0.293943,0.72853 0,0.80142 0.132171,1.1293 0.293943,0.72859 0.161772,-0.40065 0.161772,-1.05641 0,-1.45712 z m 44.783939,1.31139 c 0.19757,-0.32011 0.0826,-0.58238 -0.25677,-0.58238 -0.33937,0 -0.6168,0.26227 -0.6168,0.58238 0,0.3201 0.11634,0.58238 0.25677,0.58238 0.14181,0 0.41924,-0.26228 0.6168,-0.58238 z m -67.548571,-1.59067 c -0.592017,-0.59271 -1.081257,0.30014 -0.59477,1.08601 0.366912,0.59408 0.504591,0.59477 0.701677,0.002 0.134925,-0.40478 0.08674,-0.89471 -0.1067,-1.08835 z m 8.828004,-1.62887 c -0.154199,-0.809 -0.05507,-1.61139 0.223728,-1.78294 0.277421,-0.17141 0.504591,-0.68983 0.504591,-1.15175 0,-1.22643 -1.607601,-1.02646 -2.310862,0.28775 -0.805763,1.50565 -0.763151,1.78686 0.271226,1.78686 0.481186,0 0.843211,0.19688 0.805212,0.43713 -0.142497,0.90276 0.08192,1.89425 0.428179,1.89425 0.197569,0 0.232677,-0.66224 0.07848,-1.47103 z m 12.967717,-0.27804 c 0,-0.96169 -0.251951,-1.74852 -0.559663,-1.74852 -0.307711,0 -0.504591,0.78635 -0.437128,1.74742 0.159707,2.27499 0.996447,2.27589 0.996447,0.001 z m -11.073951,-0.87419 c 0,-0.48119 -0.21822,-0.87433 -0.486005,-0.87433 -0.267096,0 -0.486004,0.39376 -0.486004,0.87433 0,0.48118 0.21822,0.87419 0.486004,0.87419 0.267096,0 0.486005,-0.39376 0.486005,-0.87419 z m -17.911126,-0.0909 c -0.395137,-0.15971 -1.181487,-0.16934 -1.748515,-0.0207 -0.567235,0.148 -0.244379,0.2788 0.71751,0.2905 0.961615,0.0138 1.425591,-0.10877 1.031005,-0.26847 z m 20.866323,-2.98962 c 0.02754,-1.14823 0.149381,-1.31434 0.437128,-0.60578 0.335247,0.82676 0.554844,0.85966 1.43392,0.21409 0.895116,-0.6581 0.957278,-1.1218 0.452274,-3.37704 -0.322168,-1.43799 -0.855052,-3.32253 -1.184103,-4.18777 -0.555532,-1.46145 -0.505279,-1.54695 0.713862,-1.20406 0.915493,0.25746 1.072652,0.20307 0.520425,-0.17967 -0.578938,-0.40133 -0.678755,-1.21639 -0.37242,-3.03175 0.413035,-2.44317 0.395825,-2.4769 -1.066526,-2.10992 -0.817327,0.20514 -1.648698,0.10946 -1.847574,-0.21134 -0.198257,-0.32216 0.04819,-0.58444 0.547271,-0.58444 0.499773,0 0.908746,-0.25333 0.908746,-0.56379 0,-0.3442 0.510787,-0.36967 1.311317,-0.062 0.721297,0.27398 1.272217,0.93856 1.224236,1.47564 -0.07916,0.88183 0.02754,0.87405 1.082772,-0.0812 0.642957,-0.58169 1.645118,-0.97883 2.225777,-0.883 0.837703,0.13837 0.984193,-0.0991 0.709525,-1.15058 -0.190685,-0.7288 -0.45365,-1.00395 -0.584445,-0.61198 -0.357963,1.0743 -2.912516,0.85663 -3.598085,-0.30633 -0.489447,-0.83089 -0.698099,-0.87268 -1.124075,-0.22511 -0.441259,0.6705 -0.564482,0.6705 -0.790343,0 -0.147316,-0.43713 0.05507,-1.05675 0.459157,-1.37733 0.511475,-0.41097 0.56517,-0.99907 0.178982,-1.99303 -0.798396,-2.05795 -1.948148,-0.62919 -1.832292,2.27651 0.04819,1.27022 -0.196192,2.48778 -0.549337,2.70586 -0.368977,0.22786 -0.477055,0.13079 -0.254704,-0.22855 0.231299,-0.37379 -0.377239,-0.79123 -1.51281,-1.03754 -1.044635,-0.22648 -2.096015,-0.70691 -2.336402,-1.06742 -0.307711,-0.46122 -0.602342,-0.39858 -0.993487,0.21065 -0.398578,0.61955 -0.273979,1.02391 0.437129,1.42187 0.546583,0.30565 1.064391,0.50115 1.150991,0.43231 0.08674,-0.0709 0.870747,0.53763 1.742595,1.34656 0.871779,0.80838 1.81288,1.46979 2.091334,1.46979 0.27811,0 0.341442,0.65603 0.14112,1.45712 -0.201698,0.80142 -0.134236,1.45712 0.147316,1.45712 0.282241,0 0.37655,0.71386 0.20996,1.58646 -0.272604,1.42435 -0.349703,1.46903 -0.75255,0.43713 -0.54796,-1.40273 -0.554844,-1.37871 -0.780361,2.80602 -0.192061,3.56773 -0.669117,4.67411 -1.460423,3.39295 -0.398579,-0.64502 -0.534192,-0.64227 -0.79819,0.0138 -0.260212,0.65122 -0.428868,0.63745 -0.935869,-0.0799 -0.549336,-0.77712 -0.620241,-0.77712 -0.636074,0 -0.01377,0.77706 -0.08054,0.77706 -0.583068,0 -0.502526,-0.77712 -0.564481,-0.77712 -0.56035,0 0.0029,0.48119 1.037062,1.63776 2.298746,2.57101 1.261684,0.93318 2.141724,1.94292 1.95579,2.24381 -0.185866,0.30083 0.21822,0.2492 0.897938,-0.11427 0.771274,-0.41304 1.251427,-1.25639 1.276967,-2.24375 z m -3.801506,-0.4681 c -1.070931,-0.78312 -1.04966,-0.82256 0.443324,-0.82256 0.862624,0 1.568432,0.24644 1.568432,0.54865 0,0.99224 -0.8682,1.11058 -2.012031,0.27398 z m 4.174545,-2.57115 c 0.167968,-0.64089 0.536946,-1.16565 0.819668,-1.16565 0.282929,0 0.514917,0.52456 0.514917,1.16565 0,0.6409 -0.368978,1.16573 -0.819668,1.16573 -0.532815,0 -0.712967,-0.40753 -0.514917,-1.16573 z m 0.214778,-2.6713 c 0.02754,-0.67944 0.165903,-0.81705 0.352457,-0.35246 0.168656,0.42061 0.147316,0.92341 -0.0413,1.11713 -0.193438,0.19412 -0.331804,-0.15076 -0.305645,-0.76501 z m 23.801837,7.70283 c -0.50941,-0.44883 -4.88263,-1.03245 -4.4464,-0.5934 0.25264,0.25402 1.16573,0.55691 2.02938,0.67256 0.86366,0.11565 1.68422,0.32424 1.82362,0.46398 0.13975,0.13905 0.38412,0.12253 0.54452,-0.0344 0.16039,-0.1604 0.18242,-0.38825 0.0482,-0.50597 z m 5.29414,-3.35171 c 0,-0.3201 -0.26296,-0.42061 -0.58307,-0.22235 -0.32079,0.19825 -0.58306,0.6223 -0.58306,0.94309 0,0.32079 0.26158,0.42061 0.58306,0.22235 0.32011,-0.19825 0.58307,-0.6223 0.58307,-0.94295 z M 16.359893,236.31234 c 0,-0.3201 -0.589952,-0.5638 -1.311455,-0.54177 -1.25129,0.0413 -1.257967,0.062 -0.145939,0.54177 0.640893,0.27604 1.231326,0.51904 1.311455,0.54245 0.08054,0.0206 0.145939,-0.22097 0.145939,-0.54245 z m 78.683104,-2.30426 c 0.68495,-0.46879 0.527997,-0.57205 -0.728525,-0.47636 -0.881554,0.0619 -1.602851,0.36278 -1.602851,0.65879 0,0.29532 -0.459157,0.90661 -1.019921,1.35819 -0.777745,0.62575 -0.605096,0.61198 0.728525,-0.0551 0.961752,-0.48462 2.142,-1.15051 2.622772,-1.47956 z m -70.377727,1.33541 c -0.400644,-0.16177 -1.056406,-0.16177 -1.45705,0 -0.400644,0.16178 -0.07228,0.29395 0.728457,0.29395 0.801494,0 1.129306,-0.13217 0.728593,-0.29395 z m 61.253508,-1.67905 c -0.189996,-0.49427 -0.470171,-0.77444 -0.622994,-0.62162 -0.152823,0.15282 -0.104636,0.5576 0.106012,0.89938 0.574119,0.92988 0.910605,0.74932 0.516982,-0.27742 z m 62.419642,0.0413 c -0.6223,-0.47017 -1.65599,-0.84273 -2.29709,-0.82689 -0.90393,0.0207 -0.77307,0.20789 0.58307,0.82937 2.31609,1.06054 3.11813,1.05937 1.7143,-0.002 z m -50.424691,-0.49013 c 0.894083,0.23405 1.01579,0.0138 0.753651,-1.35703 -0.265719,-1.38869 -0.371732,-1.46799 -0.702366,-0.52524 -0.292567,0.83412 -0.50528,0.92341 -0.854432,0.35865 -0.360029,-0.58169 -0.563793,-0.59202 -0.902,-0.0413 -0.290501,0.47017 -1.07451,0.56792 -2.336126,0.2905 -1.390138,-0.30565 -1.682911,-0.55347 -1.092753,-0.92761 0.594082,-0.37655 0.44539,-0.51285 -0.567923,-0.51974 -1.014965,-0.007 -1.281304,0.23199 -1.019921,0.91295 0.194126,0.50734 0.353833,1.15512 0.353833,1.43998 0,0.28499 1.049109,0.37173 2.331308,0.19206 1.710102,-0.23956 2.343629,-0.11772 2.37736,0.45365 0.02754,0.50252 0.143874,0.54314 0.319414,0.11358 0.150069,-0.36622 0.753238,-0.54107 1.339679,-0.38825 z m 6.909391,0.075 c 0.37861,-0.37793 1.80771,-0.87006 3.17644,-1.09268 2.38982,-0.38894 2.34673,-0.40753 -1.08614,-0.47843 -3.11766,-0.062 -3.61371,0.0757 -3.87957,1.09268 -0.33938,1.29817 0.69314,1.57401 1.78927,0.47843 z m 47.49483,0.30565 c -0.39445,-0.15971 -1.18142,-0.16935 -1.74852,-0.0207 -0.56723,0.148 -0.24438,0.27879 0.71751,0.2905 0.96168,0.0138 1.42559,-0.10877 1.03101,-0.26848 z m -67.766042,-2.53184 c 0,-0.96168 0.306334,-1.74851 0.680131,-1.74851 0.374485,0 0.483939,-0.19619 0.244379,-0.43644 -0.239561,-0.24025 -0.838324,0.0881 -1.329698,0.72852 -0.677377,0.88341 -0.964781,0.97284 -1.188577,0.37036 -0.228546,-0.61543 -0.395825,-0.63264 -0.740365,-0.0737 -0.438506,0.70904 0.9844,2.90852 1.881512,2.90852 0.249198,0 0.45365,-0.78683 0.45365,-1.74844 z m -55.952479,0.63745 c 0,-0.2905 -0.524554,-0.391 -1.165654,-0.22372 -0.640892,0.16727 -1.165653,0.40546 -1.165653,0.52868 0,0.12322 0.524554,0.22304 1.165653,0.22304 0.640893,0 1.165654,-0.23818 1.165654,-0.52869 z m 131.138621,-0.34626 c -1.6392,-0.93697 -3.47211,-1.18293 -2.59358,-0.34832 0.51973,0.49357 2.15267,1.02804 3.46784,1.13398 0.3201,0.0275 -0.0723,-0.32767 -0.87426,-0.786 z m -72.854766,0.062 c 0,-0.12598 -0.39376,-0.38 -0.874326,-0.56448 -0.481186,-0.18449 -0.874258,-0.0819 -0.874258,0.22854 0,0.31047 0.39376,0.56517 0.874258,0.56517 0.481185,0 0.874326,-0.10326 0.874326,-0.22854 z M 155.5125,230.6621 c -0.56104,-0.14663 -1.47894,-0.14663 -2.03992,0 -0.56103,0.14662 -0.10188,0.2664 1.01993,0.2664 1.12194,0 1.58096,-0.11978 1.01999,-0.2664 z m -4.37136,-0.56724 c -0.40064,-0.16177 -1.05634,-0.16177 -1.45705,0 -0.40064,0.16177 -0.0723,0.29395 0.72859,0.29395 0.80136,0 1.12924,-0.13218 0.72846,-0.29395 z M 42.539017,228.94131 c 0.133548,-0.11496 -0.703123,-0.20858 -1.859897,-0.20858 -1.156429,0 -2.255102,0.24645 -2.44145,0.54865 -0.309088,0.49977 3.693635,0.18311 4.301347,-0.33938 z m 113.702003,0.3738 c -0.48118,-0.31046 -1.39881,-0.54245 -2.03991,-0.5156 -0.96031,0.0413 -0.90902,0.13148 0.29188,0.5156 2.06077,0.66017 2.76974,0.66017 1.74844,0 z m 5.10663,0.18242 c -0.55691,-0.14593 -1.60636,-0.15144 -2.33131,-0.0138 -0.72501,0.13905 -0.26916,0.25883 1.01318,0.26503 1.28219,0.006 1.87538,-0.10808 1.31813,-0.25333 z m 6.25879,-0.16934 c 0.86379,-0.36141 0.53419,-0.47017 -1.27029,-0.41992 -1.33975,0.0344 -2.30784,0.27467 -2.15123,0.52869 0.35728,0.57756 1.89769,0.52868 3.42152,-0.10877 z m -25.14358,-1.78493 c -0.40615,-0.40615 -1.83683,-0.42956 -4.3421,-0.0716 l -3.73618,0.53419 4.34217,0.0716 c 3.00545,0.0482 4.15562,-0.11427 3.73611,-0.53419 z m 23.31438,-0.26847 c 0.23819,-0.62162 -0.0344,-0.86097 -0.95762,-0.82821 -0.75276,0.0275 -0.96113,0.1783 -0.49908,0.36141 0.67118,0.26709 0.67118,0.39445 0,0.81932 -0.63332,0.40133 -0.59959,0.50528 0.16315,0.51217 0.52662,0.005 1.10851,-0.38413 1.29307,-0.86538 z m -1.87951,-3.03072 c -0.48601,-0.19343 -0.56586,-0.45847 -0.20514,-0.68288 0.32423,-0.2017 -0.82607,-0.41717 -2.55683,-0.47912 -3.60228,-0.12873 -3.96176,0.13492 -1.25253,0.91714 2.00205,0.57825 5.36856,0.78284 4.01395,0.24438 z m -89.69118,-1.72662 c -0.400644,-0.16177 -1.056405,-0.16177 -1.457049,0 -0.400644,0.16177 -0.07228,0.29394 0.728456,0.29394 0.801494,0 1.129237,-0.13217 0.728593,-0.29394 z m 81.87662,0.0344 c -0.19344,-0.19413 -0.69596,-0.21478 -1.11705,-0.0413 -0.46466,0.18586 -0.3263,0.32423 0.35246,0.35245 0.61404,0.0275 0.95865,-0.11221 0.76494,-0.30633 z m 7.73477,-0.59064 c 0,-0.12322 -0.65535,-0.22373 -1.45712,-0.22373 -0.80135,0 -1.45705,0.22579 -1.45705,0.50253 0,0.27673 0.65535,0.37655 1.45705,0.22372 0.80143,-0.15351 1.45712,-0.3793 1.45712,-0.50252 z m -93.994793,-0.5755 c -0.193438,-0.19412 -0.696721,-0.21478 -1.117122,-0.0413 -0.464664,0.18587 -0.326297,0.32423 0.352457,0.35246 0.614045,0.0275 0.958654,-0.11221 0.76501,-0.30634 z m 53.196093,-0.81354 c 0,-0.3201 -0.11634,-0.58238 -0.25677,-0.58238 -0.14181,0 -0.41923,0.26228 -0.6168,0.58238 -0.19757,0.3201 -0.0826,0.58238 0.25677,0.58238 0.33937,0 0.6168,-0.26228 0.6168,-0.58238 z m -30.461406,-4.517 c 0.459846,-1.98236 0.416477,-2.47704 -0.21822,-2.47704 -0.43644,0 -0.805625,0.32768 -0.820838,0.72853 -0.01377,0.40064 -0.126664,2.03991 -0.248509,3.64276 -0.238184,3.15077 0.301515,2.35561 1.287774,-1.89425 z m 65.431766,3.64276 c -1.122,-0.43231 -3.08908,-0.77285 -4.37135,-0.75723 -2.11791,0.0275 -2.04769,0.0709 0.76666,0.47981 1.70398,0.24782 3.25575,0.60854 3.4485,0.8015 0.19275,0.19275 0.7657,0.33043 1.27325,0.30633 0.50734,-0.0207 0.005,-0.39789 -1.11706,-0.82992 z m 11.65675,-2.03998 c 0,-0.3201 -0.58995,-0.57893 -1.31146,-0.57411 -1.0604,0.007 -1.1441,0.11702 -0.43713,0.57411 1.13,0.73032 1.74852,0.73032 1.74852,0 z m -7.43119,-0.96884 c -0.40064,-0.16177 -1.05641,-0.16177 -1.45712,0 -0.40064,0.16177 -0.0723,0.29395 0.72853,0.29395 0.80142,0 1.12923,-0.13218 0.72859,-0.29395 z m -5.57336,-1.20062 c -1.34388,-0.2017 -1.51473,-0.39652 -0.94853,-1.07837 0.57205,-0.68915 0.40271,-0.82414 -0.98365,-0.78593 -0.92079,0.0275 -1.34635,0.17829 -0.94564,0.33937 1.36784,0.55209 0.75565,1.49567 -0.72859,1.12318 -0.84018,-0.21133 -1.45705,-0.11427 -1.45705,0.22786 0,0.3442 1.40679,0.55691 3.35129,0.50666 1.84324,-0.0482 2.61376,-0.19826 1.71217,-0.33387 z M 33.553578,213.57813 c 0.197568,-0.3201 0.09844,-0.58238 -0.223039,-0.58238 -0.320791,0 -0.744978,0.26228 -0.943097,0.58238 -0.197568,0.3201 -0.09844,0.58238 0.223039,0.58238 0.320791,0 0.744978,-0.26228 0.943097,-0.58238 z m 5.682604,69.53879 c 0.56104,-0.14663 1.47901,-0.14663 2.040049,0 0.56104,0.14662 0.101882,0.2664 -1.01999,0.2664 -1.122009,0 -1.581029,-0.11978 -1.020059,-0.2664 z m 47.769842,-5.15737 c -0.413723,-0.46879 -0.500461,-0.85202 -0.193438,-0.85202 0.307023,0 0.95831,-0.15351 1.447619,-0.34075 0.635386,-0.24369 0.863243,0.006 0.797846,0.87419 -0.106012,1.407 -0.973661,1.54193 -2.052165,0.31872 z m 10.841894,-5.33008 c 0.420608,-0.16865 0.923409,-0.148 1.117122,0.0413 0.193438,0.19412 -0.150757,0.33111 -0.765009,0.30633 -0.678755,-0.0275 -0.817052,-0.1659 -0.352457,-0.35245 z m 1.857832,-0.18448 c 0,-0.32079 0.6402,-0.58238 1.4227,-0.58238 0.78243,0 1.58475,0.26227 1.78286,0.58238 0.20996,0.34006 -0.38274,0.58238 -1.42269,0.58238 -0.98062,0 -1.78287,-0.26228 -1.78287,-0.58238 z m 24.47914,-7.57686 c -1.9803,-0.41716 -1.95799,-0.43162 0.76294,-0.50596 1.73751,-0.0482 2.66601,0.14525 2.44276,0.50596 -0.19757,0.32011 -0.54176,0.54865 -0.76294,0.50597 -0.22166,-0.0413 -1.32075,-0.26985 -2.44276,-0.50597 z m 10.49109,-0.1067 c 0,-0.24162 -0.45916,-0.2843 -1.01992,-0.0943 -0.58926,0.19895 -0.40478,-0.11427 0.43713,-0.74256 1.84537,-1.3772 4.413,-1.45995 4.413,-0.14181 0,0.53763 -0.32698,0.82834 -0.74938,0.66636 -0.41235,-0.15833 -0.74938,-0.0551 -0.74938,0.23336 0,0.28638 -0.52456,0.51974 -1.16573,0.51974 -0.64089,0 -1.16565,-0.19757 -1.16565,-0.43988 z m 31.60992,-3.13851 c 0.18242,-0.18174 1.43027,-0.40891 2.77387,-0.50528 1.50772,-0.10739 2.14351,0.0138 1.66054,0.32217 -0.86063,0.54589 -4.96627,0.71482 -4.43441,0.18242 z m -19.07954,-2.0015 c -0.31459,-0.50872 0.36347,-0.88837 3.62473,-2.03069 0.39032,-0.1363 0.86827,0.007 1.06191,0.32079 0.19344,0.31322 -0.57618,0.95749 -1.71113,1.43158 -2.44793,1.02288 -2.5116,1.02887 -2.97551,0.27811 z m -15.15308,-0.58169 c 0.19756,-0.3201 0.47636,-0.58238 0.6168,-0.58238 0.1418,0 0.25677,0.26228 0.25677,0.58238 0,0.32079 -0.27743,0.58238 -0.6168,0.58238 -0.33938,0 -0.45572,-0.26228 -0.25677,-0.58238 z m 30.8904,0 c -0.4564,-0.73768 0.31598,-0.73768 1.45705,0 0.75345,0.48669 0.7381,0.56654 -0.11083,0.57412 -0.54245,0.005 -1.14761,-0.25333 -1.34573,-0.57412 z m -8.46005,-0.99948 c -0.007,-0.79234 -0.12667,-0.85505 -0.50184,-0.26296 -0.40065,0.63263 -0.55485,0.61473 -0.82855,-0.0971 -0.42267,-1.10101 1.22128,-1.79477 2.24312,-0.94674 0.45503,0.37724 1.64471,0.46673 2.98597,0.22372 1.22644,-0.22166 2.05719,-0.21822 1.84613,0.007 -0.21134,0.22648 -0.73561,0.46604 -1.16565,0.53075 -0.42956,0.062 -1.10983,0.32354 -1.51054,0.57343 -0.40064,0.24989 -0.72853,0.29876 -0.72853,0.10876 0,-0.19068 -0.52455,-0.062 -1.16572,0.27812 -0.96271,0.51491 -1.16724,0.44263 -1.17453,-0.41648 z m 0.69527,-3.43342 c 0.50872,-0.50872 1.37617,-0.83385 1.92798,-0.72295 0.69101,0.13837 0.40271,0.4268 -0.92472,0.92465 -1.76049,0.66017 -1.84757,0.64227 -1.00326,-0.2017 z m 4.85089,0.3497 c -0.93036,-0.3972 -0.69527,-0.51905 1.16565,-0.60509 l 2.33138,-0.10808 -2.19211,-0.42474 c -1.20565,-0.23405 -2.38535,-0.61818 -2.62154,-0.85464 -0.23612,-0.2368 0.25402,-0.25814 1.08931,-0.0482 0.90613,0.22717 2.42184,0.004 3.75732,-0.55415 1.23118,-0.51423 2.07102,-0.76783 1.86636,-0.56311 -0.63607,0.63677 0.92479,1.83464 2.01761,1.54889 0.57068,-0.14938 1.0372,0.0344 1.0372,0.41441 0,0.37655 -0.23474,0.5397 -0.5218,0.36278 -0.28706,-0.1776 -0.64984,0.0138 -0.80625,0.41854 -0.33318,0.86731 -5.37503,1.16063 -7.1232,0.41441 z m 9.7625,-3.85313 c 0,-0.9696 0.33043,-1.38904 1.09289,-1.38904 0.60096,0 1.09275,0.20376 1.09275,0.45296 0,0.2492 -0.49151,0.8744 -1.09275,1.38897 -1.0246,0.87729 -1.09289,0.84899 -1.09289,-0.45296 z m -25.7906,-4.30328 c 0,-0.3201 0.39376,-0.58238 0.87426,-0.58238 0.48118,0 0.87426,0.26228 0.87426,0.58238 0,0.32079 -0.39376,0.58238 -0.87426,0.58238 -0.48119,0 -0.87426,-0.26228 -0.87426,-0.58238 z m -11.76606,-1.56382 c 0.42061,-0.16865 0.92348,-0.148 1.11712,0.0413 0.19344,0.19412 -0.15075,0.33111 -0.76494,0.30633 -0.67875,-0.0275 -0.81712,-0.1659 -0.35245,-0.35246 z m -7.759,-1.32873 c -1.42476,-0.58582 -0.6106,-0.9548 3.02321,-1.37031 2.79226,-0.31873 3.38407,-0.0206 2.23624,1.12669 -0.88031,0.88031 -3.4244,0.99817 -5.25945,0.24369 z m 22.4393,-2.85497 c 0,-0.27673 0.65535,-0.37655 1.45712,-0.22372 0.80135,0.15351 1.45705,0.3793 1.45705,0.50252 0,0.12322 -0.65535,0.22373 -1.45705,0.22373 -0.8015,0 -1.45712,-0.22579 -1.45712,-0.50253 z m 11.80248,-0.48256 c 0.56103,-0.14663 1.47887,-0.14663 2.03991,0 0.56104,0.14663 0.10188,0.26641 -1.01992,0.26641 -1.12201,0 -1.58103,-0.11978 -1.01999,-0.26641 z m 10.92821,-2.51242 c -1.38057,-0.44195 -1.35757,-0.46949 0.43713,-0.52525 1.04181,-0.0275 1.89425,0.20377 1.89425,0.52525 0,0.65879 -0.27467,0.65879 -2.33131,0 z m 1.45712,-1.74852 c 0.19757,-0.3201 0.47637,-0.58238 0.6168,-0.58238 0.14181,0 0.25677,0.26228 0.25677,0.58238 0,0.3201 -0.27742,0.58238 -0.6168,0.58238 -0.33937,0 -0.45571,-0.26228 -0.25677,-0.58238 z"
         id="path1030"
         inkscape:connector-curvature="0" />
      <rect
         y="206.5199"
         x="0.62325853"
         height="38.673096"
         width="75.625748"
         id="rect1001"
         style="fill:#47525e;fill-opacity:1;stroke:none;stroke-width:0.50971252;stroke-opacity:1" />
      <rect
         y="271.48657"
         x="158.939"
         height="13.216073"
         width="13.040178"
         id="rect1036"
         style="fill:#47525e;fill-opacity:1;stroke:none;stroke-width:0.36876118;stroke-opacity:1" />
      <rect
         style="fill:#47525e;fill-opacity:1;stroke:none;stroke-width:0.42075601;stroke-opacity:1"
         id="rect1072"
         width="43.24411"
         height="20.312626"
         x="101.48661"
         y="215.35712" />
      <rect
         style="fill:#47525e;fill-opacity:1;stroke:none;stroke-width:0.3841708;stroke-opacity:1"
         id="rect1074"
         width="23.056553"
         height="19.773338"
         x="148.92166"
         y="208.95929" />
      <rect
         style="fill:#47525e;fill-opacity:1;stroke:none;stroke-width:0.26458332;stroke-opacity:1"
         id="rect1076"
         width="10.583333"
         height="11.150297"
         x="9.0714283"
         y="271.48657" />
      <rect
         style="fill:#47525e;fill-opacity:1;stroke:none;stroke-width:0.52140582;stroke-opacity:1"
         id="rect1078"
         width="6.8377495"
         height="8.1463718"
         x="113.58184"
         y="236.90176" />
    </g>
    <g
       id="g113"
       inkscape:export-xdpi="96"
       inkscape:export-ydpi="96">
      <rect
         y="243.1329"
         x="107.74624"
         height="19.938017"
         width="126.46077"
         id="rect1092"
         style="fill:#0b233f;fill-opacity:1;stroke:#0b233f;stroke-width:6.01168537;stroke-linejoin:bevel;stroke-miterlimit:4;stroke-dasharray:none;stroke-opacity:1" />
      <text
         transform="matrix(1.7486109,0,0,1.9542422,-211.20822,-282.09912)"
         xml:space="preserve"
         style="font-style:normal;font-variant:normal;font-weight:bold;font-stretch:condensed;font-size:12.69999981px;line-height:1.25;font-family:'Agency FB';-inkscape-font-specification:'Agency FB, Bold Condensed';font-variant-ligatures:normal;font-variant-caps:normal;font-variant-numeric:normal;font-feature-settings:normal;text-align:start;letter-spacing:0px;word-spacing:0px;writing-mode:lr-tb;text-anchor:start;fill:#999999;fill-opacity:1;stroke:none;stroke-width:0.26458332;filter:url(#filter897)"
         x="195.1835"
         y="278.23508"
         id="text1096"><tspan
           sodipodi:role="line"
           id="tspan1094"
           x="195.1835"
           y="278.23508"
           style="font-style:normal;font-variant:normal;font-weight:600;font-stretch:semi-condensed;font-size:12.69999981px;font-family:'Saira SemiCondensed SemiBold';-inkscape-font-specification:'Saira SemiCondensed SemiBold,  Semi-Bold Semi-Condensed';font-variant-ligatures:normal;font-variant-caps:normal;font-variant-numeric:normal;font-feature-settings:normal;text-align:start;writing-mode:lr-tb;text-anchor:start;fill:#999999;fill-opacity:1;stroke-width:0.26458332">PLAY</tspan></text>
    </g>
    <g
       id="g985"
       transform="translate(18.097951,-66.555257)">
      <g
         transform="translate(-0.15722901)"
         id="text823"
         style="font-style:normal;font-variant:normal;font-weight:normal;font-stretch:normal;font-size:6.3499999px;line-height:1.25;font-family:'Josefin Sans';-inkscape-font-specification:'Josefin Sans, Normal';font-variant-ligatures:normal;font-variant-caps:normal;font-variant-numeric:normal;font-feature-settings:normal;text-align:start;letter-spacing:0px;word-spacing:0px;writing-mode:lr-tb;text-anchor:start;fill:#808080;fill-opacity:1;stroke:none;stroke-width:0.26458332;filter:url(#filter897)"
         aria-label="BATTLESHIP">
        <path
           inkscape:connector-curvature="0"
           id="path57"
           style="font-style:normal;font-variant:normal;font-weight:normal;font-stretch:normal;font-size:22.57777786px;font-family:'Josefin Sans';-inkscape-font-specification:'Josefin Sans, Normal';font-variant-ligatures:normal;font-variant-caps:normal;font-variant-numeric:normal;font-feature-settings:normal;text-align:start;writing-mode:lr-tb;text-anchor:start;fill:#808080;stroke-width:0.26458332"
           d="m 32.17377,187.94946 q 1.104405,-1.01657 2.374925,-1.29707 1.250264,-0.29047 2.445387,0.29787 1.397687,0.68806 1.990436,1.83548 0.582465,1.11719 0.479654,2.45066 -0.113096,1.30325 -0.761264,2.61992 l -2.143942,4.35511 -14.645325,-7.20963 1.864731,-3.78793 q 1.106872,-2.24846 2.646944,-3.02539 1.519816,-0.7869 3.363142,0.12053 1.154611,0.5684 1.766365,1.52385 0.601471,0.92522 0.618947,2.1166 z m -2.891863,4.23857 1.096901,-2.22819 q 0.558422,-1.13436 0.18943,-2.02063 -0.359019,-0.90654 -1.371836,-1.40513 -1.114098,-0.54845 -2.000061,-0.12897 -0.885962,0.41947 -1.494244,1.65511 l -0.937351,1.90409 z m 7.558044,0.85185 q 0.628225,-1.27615 0.469892,-2.38587 -0.178589,-1.11969 -1.292687,-1.66814 -1.15461,-0.5684 -2.150263,0.0739 -0.985681,0.62204 -1.613906,1.89819 l -1.066985,2.16742 4.517161,2.22372 z" />
        <path
           inkscape:connector-curvature="0"
           id="path59"
           style="font-style:normal;font-variant:normal;font-weight:normal;font-stretch:normal;font-size:22.57777786px;font-family:'Josefin Sans';-inkscape-font-specification:'Josefin Sans, Normal';font-variant-ligatures:normal;font-variant-caps:normal;font-variant-numeric:normal;font-feature-settings:normal;text-align:start;writing-mode:lr-tb;text-anchor:start;fill:#808080;stroke-width:0.26458332"
           d="m 45.552393,176.97973 -4.161871,4.69839 2.058378,4.14579 -1.437193,1.62247 -7.99544,-16.61359 0.08982,-0.10141 17.456959,5.93237 -1.676725,1.89288 z m -1.913691,-0.69982 -6.003763,-2.21151 2.859904,5.76065 z" />
        <path
           inkscape:connector-curvature="0"
           id="path61"
           style="font-style:normal;font-variant:normal;font-weight:normal;font-stretch:normal;font-size:22.57777786px;font-family:'Josefin Sans';-inkscape-font-specification:'Josefin Sans, Normal';font-variant-ligatures:normal;font-variant-caps:normal;font-variant-numeric:normal;font-feature-settings:normal;text-align:start;writing-mode:lr-tb;text-anchor:start;fill:#808080;stroke-width:0.26458332"
           d="m 52.307715,156.88692 1.157599,1.75181 -3.654317,2.41477 7.841802,11.86712 -1.827158,1.20738 -7.841802,-11.86711 -3.560133,2.35254 -1.1576,-1.75181 z" />
        <path
           inkscape:connector-curvature="0"
           id="path63"
           style="font-style:normal;font-variant:normal;font-weight:normal;font-stretch:normal;font-size:22.57777786px;font-family:'Josefin Sans';-inkscape-font-specification:'Josefin Sans, Normal';font-variant-ligatures:normal;font-variant-caps:normal;font-variant-numeric:normal;font-feature-settings:normal;text-align:start;writing-mode:lr-tb;text-anchor:start;fill:#808080;stroke-width:0.26458332"
           d="m 68.248258,150.47224 0.69398,1.98174 -4.133941,1.44766 4.701158,13.42465 -2.066971,0.72383 -4.701157,-13.42466 -4.027396,1.41035 -0.69398,-1.98173 z" />
        <path
           inkscape:connector-curvature="0"
           id="path65"
           style="font-style:normal;font-variant:normal;font-weight:normal;font-stretch:normal;font-size:22.57777786px;font-family:'Josefin Sans';-inkscape-font-specification:'Josefin Sans, Normal';font-variant-ligatures:normal;font-variant-caps:normal;font-variant-numeric:normal;font-feature-settings:normal;text-align:start;writing-mode:lr-tb;text-anchor:start;fill:#808080;stroke-width:0.26458332"
           d="m 78.010048,148.78872 1.135133,14.15598 8.282038,-0.66412 0.169638,2.11552 -10.465075,0.83917 -1.304772,-16.2715 z" />
        <path
           inkscape:connector-curvature="0"
           id="path67"
           style="font-style:normal;font-variant:normal;font-weight:normal;font-stretch:normal;font-size:22.57777786px;font-family:'Josefin Sans';-inkscape-font-specification:'Josefin Sans, Normal';font-variant-ligatures:normal;font-variant-caps:normal;font-variant-numeric:normal;font-feature-settings:normal;text-align:start;writing-mode:lr-tb;text-anchor:start;fill:#808080;stroke-width:0.26458332"
           d="m 104.70949,150.72623 -0.40258,2.06077 -8.265274,-1.61464 -0.952336,4.87496 7.37892,1.44149 -0.40258,2.06078 -7.378918,-1.44149 -0.965323,4.94144 8.575501,1.67525 -0.40691,2.08293 -10.724913,-2.09513 3.129723,-16.0209 z" />
        <path
           inkscape:connector-curvature="0"
           id="path69"
           style="font-style:normal;font-variant:normal;font-weight:normal;font-stretch:normal;font-size:22.57777786px;font-family:'Josefin Sans';-inkscape-font-specification:'Josefin Sans, Normal';font-variant-ligatures:normal;font-variant-caps:normal;font-variant-numeric:normal;font-feature-settings:normal;text-align:start;writing-mode:lr-tb;text-anchor:start;fill:#808080;stroke-width:0.26458332"
           d="m 118.94149,159.89668 q -0.58311,-0.81248 -1.34693,-1.51221 -0.76382,-0.69972 -1.55502,-1.08617 -1.19694,-0.58463 -2.17453,-0.38369 -0.9474,0.19056 -1.40321,1.12377 -0.4459,0.91293 0.0782,1.89761 0.55432,0.97431 1.79841,2.28552 0.9379,0.96064 1.471,1.82407 0.56329,0.85306 0.6543,1.95284 0.1212,1.08941 -0.51297,2.38779 -0.57472,1.17665 -1.62877,1.84279 -1.05405,0.66614 -2.4171,0.67881 -1.34276,0.0226 -2.80343,-0.69086 -1.35924,-0.6639 -2.40896,-1.70429 -1.03981,-1.06067 -1.66631,-2.19586 l 1.63534,-1.13603 q 0.47317,0.93467 1.32993,1.85568 0.86666,0.90072 1.77958,1.34662 1.17666,0.57472 2.34627,0.39219 1.18991,-0.17263 1.77453,-1.36957 0.49545,-1.01436 0.0322,-1.96932 -0.43307,-0.96533 -1.51439,-2.14679 -1.00961,-1.07105 -1.62339,-1.92363 -0.59349,-0.84268 -0.80527,-1.90095 -0.20188,-1.07856 0.37283,-2.25521 0.84226,-1.72441 2.55447,-2.19472 1.7424,-0.48068 3.69941,0.39981 2.3736,1.15934 3.8276,3.32689 z" />
        <path
           inkscape:connector-curvature="0"
           id="path71"
           style="font-style:normal;font-variant:normal;font-weight:normal;font-stretch:normal;font-size:22.57777786px;font-family:'Josefin Sans';-inkscape-font-specification:'Josefin Sans, Normal';font-variant-ligatures:normal;font-variant-caps:normal;font-variant-numeric:normal;font-feature-settings:normal;text-align:start;writing-mode:lr-tb;text-anchor:start;fill:#808080;stroke-width:0.26458332"
           d="m 126.66333,183.14657 -1.60767,-1.48717 4.86013,-5.25395 -6.28153,-5.81069 -4.86014,5.25395 -1.60767,-1.48717 11.08478,-11.98298 1.60768,1.48717 -4.79881,5.18765 6.28154,5.81069 4.7988,-5.18765 1.60768,1.48717 z" />
        <path
           inkscape:connector-curvature="0"
           id="path73"
           style="font-style:normal;font-variant:normal;font-weight:normal;font-stretch:normal;font-size:22.57777786px;font-family:'Josefin Sans';-inkscape-font-specification:'Josefin Sans, Normal';font-variant-ligatures:normal;font-variant-caps:normal;font-variant-numeric:normal;font-feature-settings:normal;text-align:start;writing-mode:lr-tb;text-anchor:start;fill:#808080;stroke-width:0.26458332"
           d="m 144.02786,179.84514 -13.54267,9.11373 -1.22273,-1.81693 13.54268,-9.11373 z" />
        <path
           inkscape:connector-curvature="0"
           id="path75"
           style="font-style:normal;font-variant:normal;font-weight:normal;font-stretch:normal;font-size:22.57777786px;font-family:'Josefin Sans';-inkscape-font-specification:'Josefin Sans, Normal';font-variant-ligatures:normal;font-variant-caps:normal;font-variant-numeric:normal;font-feature-settings:normal;text-align:start;writing-mode:lr-tb;text-anchor:start;fill:#808080;stroke-width:0.26458332"
           d="m 149.73722,190.59648 q 1.04066,2.45253 0.39645,4.34461 -0.63538,1.91286 -2.8385,2.84768 -1.26783,0.53797 -2.58986,0.48578 -1.31322,-0.0314 -2.48415,-0.8835 -1.1621,-0.83132 -1.89409,-2.5564 l -0.94364,-2.2239 -5.52858,2.34588 -0.85545,-2.01606 15.02692,-6.37621 z m -7.45644,3.40918 q 0.45859,1.08077 1.19805,1.55184 0.74828,0.49186 1.51606,0.50944 0.78856,0.009 1.41208,-0.2558 1.08078,-0.4586 1.61229,-1.51802 0.5523,-1.06824 -0.0827,-2.5647 l -0.98774,-2.32782 -5.61171,2.38116 z" />
      </g>
      <text
         id="text80"
         y="190.78867"
         x="54.679459"
         style="font-style:normal;font-variant:normal;font-weight:normal;font-stretch:normal;font-size:10.58333302px;line-height:1.25;font-family:'Raleway Light';-inkscape-font-specification:'Raleway Light, ';letter-spacing:0px;word-spacing:0px;fill:#999999;fill-opacity:1;stroke:none;stroke-width:0.26458332;filter:url(#filter897)"
         xml:space="preserve"><tspan
           style="font-style:normal;font-variant:normal;font-weight:300;font-stretch:normal;font-size:4.93888903px;font-family:'Raleway Light';-inkscape-font-specification:'Raleway Light, Light';font-variant-ligatures:normal;font-variant-caps:normal;font-variant-numeric:normal;font-feature-settings:normal;text-align:start;writing-mode:lr-tb;text-anchor:start;fill:#999999;fill-opacity:1;stroke-width:0.26458332"
           y="190.78867"
           x="54.679459"
           id="tspan78"
           sodipodi:role="line">part of the boredom project</tspan></text>
    </g>
    <g
       id="g119"
       inkscape:export-xdpi="96"
       inkscape:export-ydpi="96">
      <g
         id="g61">
        <g
           id="g54"
           inkscape:export-xdpi="96"
           inkscape:export-ydpi="96">
          <rect
             style="fill:#0b233f;fill-opacity:1;stroke:#0b233f;stroke-width:6.01168537;stroke-linejoin:bevel;stroke-miterlimit:4;stroke-dasharray:none;stroke-opacity:1"
             id="rect1110"
             width="126.46077"
             height="19.938017"
             x="107.44105"
             y="271.3295" />
        </g>
        <text
           id="text1096-6"
           y="278.23508"
           x="195.1835"
           style="font-style:normal;font-variant:normal;font-weight:bold;font-stretch:condensed;font-size:12.69999981px;line-height:1.25;font-family:'Agency FB';-inkscape-font-specification:'Agency FB, Bold Condensed';font-variant-ligatures:normal;font-variant-caps:normal;font-variant-numeric:normal;font-feature-settings:normal;text-align:start;letter-spacing:0px;word-spacing:0px;writing-mode:lr-tb;text-anchor:start;fill:#999999;fill-opacity:1;stroke:none;stroke-width:0.26458332;filter:url(#filter897-8)"
           xml:space="preserve"
           transform="matrix(1.7486109,0,0,1.9542422,-208.60285,-253.90253)"><tspan
             style="font-style:normal;font-variant:normal;font-weight:600;font-stretch:semi-condensed;font-size:12.69999981px;font-family:'Saira SemiCondensed SemiBold';-inkscape-font-specification:'Saira SemiCondensed SemiBold,  Semi-Bold Semi-Condensed';font-variant-ligatures:normal;font-variant-caps:normal;font-variant-numeric:normal;font-feature-settings:normal;text-align:start;writing-mode:lr-tb;text-anchor:start;fill:#999999;fill-opacity:1;stroke-width:0.26458332"
             y="278.23508"
             x="195.1835"
             id="tspan1094-0"
             sodipodi:role="line">EXIT</tspan></text>
      </g>
      <g
         id="g71"
         transform="translate(0,32.874152)">
        <g
           id="g79"
           inkscape:export-xdpi="96"
           inkscape:export-ydpi="96">
          <g
             transform="translate(-4.9902344e-6)"
             id="g65"
             inkscape:export-xdpi="96"
             inkscape:export-ydpi="96">
            <rect
               style="fill:#0b233f;fill-opacity:1;stroke:#0b233f;stroke-width:6.01168537;stroke-linejoin:bevel;stroke-miterlimit:4;stroke-dasharray:none;stroke-opacity:1"
               id="rect63"
               width="126.46077"
               height="19.938017"
               x="107.44105"
               y="271.3295" />
          </g>
          <text
             id="text69"
             y="278.23508"
             x="195.1835"
             style="font-style:normal;font-variant:normal;font-weight:bold;font-stretch:condensed;font-size:12.69999981px;line-height:1.25;font-family:'Agency FB';-inkscape-font-specification:'Agency FB, Bold Condensed';font-variant-ligatures:normal;font-variant-caps:normal;font-variant-numeric:normal;font-feature-settings:normal;text-align:start;letter-spacing:0px;word-spacing:0px;writing-mode:lr-tb;text-anchor:start;fill:#999999;fill-opacity:1;stroke:none;stroke-width:0.26458332;filter:url(#filter897-8)"
             xml:space="preserve"
             transform="matrix(1.7486109,0,0,1.9542422,-184.19883,-253.90253)"><tspan
               style="font-style:normal;font-variant:normal;font-weight:600;font-stretch:semi-condensed;font-size:12.69999981px;font-family:'Saira SemiCondensed SemiBold';-inkscape-font-specification:'Saira SemiCondensed SemiBold,  Semi-Bold Semi-Condensed';font-variant-ligatures:normal;font-variant-caps:normal;font-variant-numeric:normal;font-feature-settings:normal;text-align:start;writing-mode:lr-tb;text-anchor:start;fill:#999999;fill-opacity:1;stroke-width:0.26458332"
               y="278.23508"
               x="195.1835"
               id="tspan67"
               sodipodi:role="line">BACK</tspan></text>
        </g>
      </g>
    </g>
  </g>
</svg>
